<svg width="24" height="24" viewBox="0 0 24 24" fill="none" xmlns="http://www.w3.org/2000/svg">
<path d="M22.8366 11.2528H3.9186L11.0698 5.27528C11.1841 5.17893 11.1147 5 10.9636 5H9.1564C9.07676 5 9.00121 5.02753 8.94199 5.07669L1.22516 11.5242C1.15448 11.5831 1.0978 11.6561 1.05895 11.738C1.02011 11.8199 1 11.909 1 11.999C1 12.0891 1.02011 12.1781 1.05895 12.26C1.0978 12.342 1.15448 12.4149 1.22516 12.4739L8.98691 18.9607C9.01754 18.9862 9.0543 19 9.0931 19H10.9616C11.1127 19 11.1821 18.8191 11.0677 18.7247L3.9186 12.7472H22.8366C22.9265 12.7472 23 12.6764 23 12.5899V11.4101C23 11.3236 22.9265 11.2528 22.8366 11.2528Z" fill="#ffffff"/>
</svg>
