<svg width="24" height="24" viewBox="0 0 24 24" fill="none" xmlns="http://www.w3.org/2000/svg">
<path d="M1.16336 12.7472L20.0814 12.7472L12.9302 18.7247C12.8159 18.8211 12.8853 19 13.0364 19H14.8436C14.9232 19 14.9988 18.9725 15.058 18.9233L22.7748 12.4758C22.8455 12.4169 22.9022 12.3439 22.941 12.262C22.9799 12.1801 23 12.091 23 12.001C23 11.9109 22.9799 11.8219 22.941 11.74C22.9022 11.658 22.8455 11.5851 22.7748 11.5261L15.0131 5.03933C14.9825 5.01376 14.9457 5 14.9069 5H13.0384C12.8873 5 12.8179 5.1809 12.9323 5.27528L20.0814 11.2528L1.16336 11.2528C1.07351 11.2528 1 11.3236 1 11.4101V12.5899C1 12.6764 1.07351 12.7472 1.16336 12.7472Z" fill="#ffffff"/>
</svg>
